<svg width="246" height="246" viewBox="0 0 246 246" fill="none" xmlns="http://www.w3.org/2000/svg">
<path d="M32.5785 94.8445L33.8902 89.7551L21.6323 93.5291L20.1886 99.1306L29.0953 108.359L30.391 103.332L28.8976 101.872L30.5652 95.4012L32.5785 94.8445ZM26.4509 99.487L24.1164 97.181L27.2707 96.3061L26.4509 99.487Z" fill="#fff"/>
<path d="M41.1503 75.6705C42.2406 73.569 42.2215 71.9732 40.3046 70.9787C38.7852 70.1905 37.7143 70.5179 36.7316 71.648C37.0216 70.4289 36.6415 69.5289 35.3494 68.8585C33.5887 67.9451 32.3798 68.8858 31.4664 70.6465L25.551 82.0486L35.235 87.0726L41.1503 75.6705ZM33.76 73.2421C33.9589 72.8587 34.1467 72.7399 34.4165 72.8798C34.7005 73.0272 34.7257 73.2565 34.5268 73.6399L31.1456 80.1574L30.3788 79.7596L33.76 73.2421ZM37.3368 74.7192C37.5283 74.35 37.6962 74.1308 38.0369 74.3076C38.3919 74.4917 38.3025 74.7336 38.1036 75.117L34.5676 81.9327L33.8009 81.5349L37.3368 74.7192Z" fill="#fff"/>
<path d="M50.772 62.6697C54.9924 57.6703 55.355 54.4385 52.3847 51.931C49.4144 49.4236 46.2893 50.3234 42.0689 55.3228C37.8486 60.3222 37.486 63.5539 40.4563 66.0614C43.4266 68.5688 46.5517 67.6691 50.772 62.6697ZM47.9606 60.2964C45.4532 63.2667 44.4647 63.7929 43.2423 62.761C42.02 61.7292 42.3729 60.6664 44.8803 57.6961C47.3878 54.7258 48.3247 54.2606 49.547 55.2925C50.7694 56.3244 50.4681 57.3261 47.9606 60.2964Z" fill="#fff"/>
<path d="M65.208 41.2257C66.339 42.7169 65.7496 43.7663 63.5702 45.4193C61.3908 47.0724 60.2214 47.3571 59.0903 45.8659L56.0259 41.8257L52.5847 44.4358L56.2195 49.2279C58.4429 52.1593 61.8809 51.3185 65.7936 48.3507C69.7064 45.3829 71.4429 42.2989 69.2195 39.3676L65.5847 34.5754L62.1435 37.1855L65.208 41.2257Z" fill="#fff"/>
<path d="M77.7389 32.2634L80.7924 38.8175L84.7074 36.9935L81.654 30.4395L87.425 27.7508L85.8713 24.4158L70.3997 31.6238L71.9534 34.9588L77.7389 32.2634Z" fill="#fff"/>
<path d="M109.553 29.8051L109.17 24.027L113.863 29.5196L118.236 29.2299L122.164 23.1823L122.546 28.9444L126.855 28.6589L126.134 17.7732L120.995 18.1136L115.864 25.8441L109.758 18.858L104.522 19.2048L105.244 30.0906L109.553 29.8051Z" fill="#fff"/>
<path d="M145.472 31.7384L146.03 28.4258L135.588 26.6653L135.713 25.9239L145.856 27.6339L146.308 24.9524L136.165 23.2423L136.285 22.5325L146.727 24.2931L147.285 20.9806L132.584 18.502L130.77 29.2597L145.472 31.7384Z" fill="#fff"/>
<path d="M186.595 54.4881L190.583 57.8986L192.58 45.2506L188.192 41.497L176.006 45.4317L179.945 48.8006L181.911 48.1026L186.98 52.4385L186.595 54.4881ZM185.123 46.9557L188.215 45.8748L187.615 49.0872L185.123 46.9557Z" fill="#fff"/>
<path d="M200.257 70.4874C201.679 72.3801 203.125 73.0539 204.852 71.7567C206.22 70.7285 206.389 69.6214 205.796 68.2462C206.769 69.0356 207.745 69.0827 208.909 68.2083C210.495 67.0168 210.17 65.5198 208.979 63.934L201.262 53.6646L192.54 60.218L200.257 70.4874ZM205.646 64.8775C205.905 65.2228 205.931 65.4435 205.688 65.6261C205.432 65.8183 205.215 65.7417 204.955 65.3964L200.545 59.5263L201.235 59.0074L205.646 64.8775ZM202.765 67.4618C203.015 67.7943 203.14 68.0406 202.833 68.2712C202.514 68.5114 202.334 68.326 202.075 67.9807L197.462 61.8421L198.153 61.3232L202.765 67.4618Z" fill="#fff"/>
<path d="M207.805 84.7912C210.48 90.7621 213.234 92.4903 216.782 90.9012C220.329 89.3121 220.874 86.106 218.199 80.1351C215.525 74.1642 212.77 72.436 209.222 74.0251C205.675 75.6142 205.13 78.8203 207.805 84.7912ZM211.163 83.2871C209.574 79.7396 209.528 78.6207 210.988 77.9667C212.448 77.3128 213.252 78.0917 214.842 81.6392C216.431 85.1867 216.443 86.2326 214.984 86.8866C213.524 87.5405 212.752 86.8346 211.163 83.2871Z" fill="#fff"/>
<path d="M220.828 107.106C218.993 107.473 218.305 106.485 217.768 103.803C217.231 101.121 217.484 99.9448 219.319 99.5771L224.291 98.5808L223.443 94.3459L217.545 95.5276C213.938 96.2504 213.196 99.711 214.16 104.526C215.125 109.341 217.143 112.249 220.751 111.526L226.648 110.344L225.8 106.11L220.828 107.106Z" fill="#fff"/>
<path d="M223.444 122.293L216.215 122.176L216.145 126.495L223.374 126.612L223.271 132.978L226.95 133.037L227.227 115.971L223.548 115.912L223.444 122.293Z" fill="#fff"/>
<path d="M211.9 152.005L217.285 154.147L210.302 156.021L208.68 160.098L212.453 166.251L207.082 164.114L205.484 168.131L215.63 172.168L217.536 167.377L212.761 159.412L221.703 156.904L223.644 152.024L213.498 147.988L211.9 152.005Z" fill="#fff"/>
<path d="M194.447 183.382L197.168 185.33L203.31 176.753L203.919 177.189L197.953 185.52L200.156 187.097L206.121 178.766L206.704 179.183L200.562 187.761L203.283 189.709L211.93 177.633L203.094 171.306L194.447 183.382Z" fill="#fff"/>
<path d="M150.254 212.754L145.322 214.543L155.342 222.514L160.771 220.546L163.353 208.005L158.481 209.772L158.119 211.825L151.848 214.099L150.254 212.754ZM157.534 215.186L156.95 218.409L154.451 216.303L157.534 215.186Z" fill="#fff"/>
<path d="M129.63 216.709C127.281 217.009 125.98 217.933 126.254 220.075C126.47 221.773 127.349 222.467 128.837 222.632C127.67 223.087 127.146 223.912 127.33 225.356C127.581 227.324 129.043 227.782 131.011 227.531L143.752 225.906L142.372 215.084L129.63 216.709ZM131.839 224.168C131.411 224.223 131.206 224.136 131.168 223.834C131.127 223.517 131.302 223.366 131.73 223.311L139.013 222.382L139.123 223.239L131.839 224.168ZM131.018 220.386C130.606 220.439 130.33 220.426 130.281 220.045C130.231 219.648 130.48 219.584 130.909 219.53L138.526 218.558L138.635 219.415L131.018 220.386Z" fill="#fff"/>
<path d="M113.401 216.316C106.859 215.727 103.992 217.291 103.643 221.178C103.293 225.065 105.834 227.116 112.376 227.705C118.919 228.294 121.785 226.73 122.135 222.843C122.484 218.955 119.944 216.905 113.401 216.316ZM113.07 219.995C116.957 220.345 117.96 220.854 117.816 222.454C117.672 224.054 116.594 224.376 112.707 224.026C108.82 223.676 107.898 223.174 108.042 221.574C108.186 219.975 109.183 219.645 113.07 219.995Z" fill="#fff"/>
<path d="M87.621 216.576C88.2037 214.798 89.402 214.686 92.0015 215.537C94.6009 216.389 95.5004 217.188 94.9177 218.967L93.339 223.786L97.4434 225.131L99.316 219.415C100.461 215.919 97.8138 213.57 93.147 212.041C88.4801 210.512 84.956 210.839 83.8105 214.335L81.9379 220.051L86.0423 221.395L87.621 216.576Z" fill="#fff"/>
<path d="M73.1082 211.35L76.767 205.113L73.0418 202.928L69.3829 209.164L63.8916 205.942L62.0298 209.116L76.7515 217.753L78.6133 214.58L73.1082 211.35Z" fill="#fff"/>
<path d="M53.0663 186.574L48.5495 190.164L50.3885 183.205L47.671 179.787L40.4889 179.998L44.9932 176.418L42.3154 173.049L33.8059 179.813L36.9994 183.83L46.2425 183.65L43.9816 192.614L47.2346 196.707L55.7441 189.943L53.0663 186.574Z" fill="#fff"/>
<path d="M34.1084 155.985L31.0668 157.411L35.5623 166.999L34.8816 167.318L30.5151 158.005L28.0529 159.159L32.4194 168.472L31.7676 168.778L27.2721 159.19L24.2306 160.616L30.5596 174.115L40.4374 169.483L34.1084 155.985Z" fill="#fff"/>
<path fill-rule="evenodd" clip-rule="evenodd" d="M123 199.061C165.007 199.061 199.061 165.007 199.061 123C199.061 80.9929 165.007 46.9394 123 46.9394C80.9927 46.9394 46.9391 80.9929 46.9391 123C46.9391 165.007 80.9927 199.061 123 199.061ZM123 200.56C165.835 200.56 200.56 165.836 200.56 123C200.56 80.1647 165.835 45.4397 123 45.4397C80.1644 45.4397 45.4395 80.1647 45.4395 123C45.4395 165.836 80.1644 200.56 123 200.56Z" fill="#fff"/>
<path fill-rule="evenodd" clip-rule="evenodd" d="M123 244.5C190.103 244.5 244.5 190.103 244.5 123C244.5 55.8972 190.103 1.49967 123 1.49967C55.8972 1.49967 1.49967 55.8972 1.49967 123C1.49967 190.103 55.8972 244.5 123 244.5ZM123 246C190.931 246 246 190.931 246 123C246 55.069 190.931 0 123 0C55.069 0 0 55.069 0 123C0 190.931 55.069 246 123 246Z" fill="#fff"/>
</svg>
